<svg width="41" height="41" viewBox="0 0 41 41" fill="none" xmlns="http://www.w3.org/2000/svg">
<path d="M10.9081 9.62594C16.9137 4.32847 26.0766 4.9025 31.3741 10.9081C36.6716 16.9137 36.0975 26.0766 30.092 31.3741C24.0864 36.6715 14.9234 36.0975 9.62598 30.0919C4.32851 24.0863 4.90254 14.9234 10.9081 9.62594ZM27.2144 28.1118C31.4183 24.4036 31.8201 17.9896 28.1119 13.7857C24.4036 9.58175 17.9896 9.17993 13.7857 12.8882C9.58179 16.5964 9.17997 23.0104 12.8882 27.2143C16.5964 31.4182 23.0105 31.8201 27.2144 28.1118Z" fill="#303030"/>
<path d="M10.9081 9.62594C12.8408 7.92114 15.1929 6.76223 17.7223 6.26854C20.2517 5.77485 22.867 5.96421 25.2989 6.81714C27.7308 7.67006 29.8915 9.15571 31.5584 11.1212C33.2253 13.0866 34.3383 15.4608 34.7828 17.9993L30.4979 18.7495C30.1868 16.9726 29.4077 15.3106 28.2409 13.9348C27.074 12.559 25.5616 11.519 23.8593 10.922C22.1569 10.3249 20.3262 10.1924 18.5556 10.538C16.7851 10.8836 15.1386 11.6948 13.7857 12.8882L10.9081 9.62594Z" fill="white"/>
</svg>
